<svg xmlns="http://www.w3.org/2000/svg"  viewBox="0 0 128 128" width="64px" height="64px"><path fill="#71c2ff" d="M113.5,27.92l-43-24.83c-4.01-2.31-8.99-2.31-13,0l-43,24.83C10.49,30.23,8,34.54,8,39.17v49.65 c0,4.63,2.49,8.94,6.5,11.26l43,24.83c2,1.16,4.25,1.74,6.5,1.74s4.5-0.58,6.5-1.74l43-24.83c4.01-2.31,6.5-6.63,6.5-11.26V39.17 C120,34.54,117.51,30.23,113.5,27.92z"/><path fill="#fff" d="M64,67.02c-0.52,0-1.04-0.13-1.5-0.4L23.49,44.1c-1.44-0.83-1.93-2.66-1.1-4.1c0.83-1.43,2.66-1.93,4.1-1.1 L64,60.56l37.51-21.66c1.44-0.83,3.27-0.34,4.1,1.1c0.83,1.44,0.34,3.27-1.1,4.1L65.5,66.62C65.04,66.89,64.52,67.02,64,67.02z"/><path fill="#fff" d="M64,112.03c-1.66,0-3-1.34-3-3V64.02c0-1.66,1.34-3,3-3s3,1.34,3,3v45.01C67,110.69,65.66,112.03,64,112.03z"/></svg>