<svg xmlns="http://www.w3.org/2000/svg" width="484.717" height="626.214" viewBox="0 0 484.717 626.214"><g transform="translate(0 0.003)"><path d="M330.278,203.1c-70.63,47.07-121.21,169.21-121.24,422.11C152.358,612.7,36.4,564.3,5.318,542.871A52.933,52.933,0,0,1,1,539.611c.5-208.15,39-322.53,95.53-377.88,0-.01.01-.01.01-.02a156.84,156.84,0,0,1,25.68-20.47Z" fill="#94b8c2"/><path d="M96.528,161.731c-46.22,68.94-85.21,142.23-91.21,381.14A52.926,52.926,0,0,1,1,539.611c.5-208.15,39-322.53,95.528-377.88Z" fill="#bfd3ce"/><path d="M480.358,440.2c-1.99,1.5-4.14,3.05-6.43,4.64-20.72,14.37-53.05,31.89-80.77,42.97q-.24-29.76-.72-59.72c1.69-.72,3.35-1.43,5.01-2.17,29.72-13.02,55.9-26.93,74.63-39.75,2.34-1.6,4.57-3.19,6.67-4.75.82,19.7,1.31,39.28,1.61,58.78Z" fill="#4a607c"/><path d="M472.978,297.591c-2.07,1.41-4.26,2.85-6.54,4.31a496.068,496.068,0,0,1-75.97,39.2q-.87-28.635-2.07-57.69c3.05-1.28,6.06-2.59,9.05-3.89,24.1-10.57,45.88-21.71,63.23-32.38q2.94-1.8,5.7-3.59Q470.368,270.866,472.978,297.591Z" fill="#4a607c"/><path d="M454.868,178.621q-1.935,1.08-3.92,2.14c-29.45,15.73-63.34,26.86-66.31,28.09q-1.395-23.805-3.11-47.98a4.629,4.629,0,0,1,2.96-4.48c8.94-3.02,33.42-11.04,57.24-22.48.82-.39,1.64-.79,2.45-1.19Q450.148,155.956,454.868,178.621Z" fill="#4a607c"/><path d="M330.278,73.981V203.1l-10.12-3.01-29.25-8.69-168.69-50.16V29.641c0-3.11.96-6.25,7.66-7.59Z" fill="#94b8c2"/><path d="M297.4,119.984c-2.079,24.816-15.768,44.565-32.121,48.152a24.87,24.87,0,0,1-7.365.484l-.366-.045a23.747,23.747,0,0,1-5.856-1.3,29.923,29.923,0,0,1-12.093-8.4c-8.96-9.985-14.069-26.529-12.546-44.771a73.706,73.706,0,0,1,1.142-8.242,72.688,72.688,0,0,1,2.152-8.33c.219-.689.454-1.362.688-2.035a19.807,19.807,0,0,0,8.564-.366c24.274-5.71,36.543-7.614,54.536-3.529.146.395.278.791.41,1.2v.014a70.738,70.738,0,0,1,2.855,27.168Z" fill="#fff8ea"/><path d="M297.4,119.981c-2.08,24.82-15.77,44.57-32.12,48.16a24.943,24.943,0,0,1-7.37.48c-.12-.02-.25-.03-.36-.05a23.628,23.628,0,0,1-4.68-.91,27.511,27.511,0,0,0,3.72-.52c16.35-3.59,30.04-23.34,32.12-48.16a70.732,70.732,0,0,0-2.86-27.17V91.8c-.2-.61-.39-1.2-.64-1.8,2.86.36,5.81.88,8.92,1.59.15.4.28.8.41,1.21v.01a70.733,70.733,0,0,1,2.86,27.171Z" fill="#e7dcdc"/><path d="M204.062,92.387c-.073,23.8-10.7,43.482-24.8,47.933a20.222,20.222,0,0,1-6.427.936c-.512-.014-1.039-.044-1.537-.087a19.662,19.662,0,0,1-4.026-.82,24.728,24.728,0,0,1-8.389-4.656c-10.117-8.33-17.012-25.182-16.954-44.507,0-.776.015-1.552.044-2.313a74.651,74.651,0,0,1,1.684-13.7,59.28,59.28,0,0,1,6.6-17.364c14.757,4.07,24.552,11.346,42.472,26.894,4.318,3.748,8.227,4.949,11.287,4.641.032,1.008.046,2.018.046,3.043Z" fill="#fff8ea"/><path d="M192.118,460.111c-19.98-6.49-118.87-47.07-153.3-58.24-3.58,10.89-7.07,31.14-9.94,51.97,1.72-25.81,5.82-59.67,5.82-59.67l147.24,57.89Z" fill="#bfd3ce"/><path d="M28.6,459.07h-.064a1,1,0,0,1-.935-1.061C35.13,339.088,58.531,250.6,97.154,194.987a1,1,0,1,1,1.643,1.14c-38.411,55.3-61.7,143.455-69.2,262.006a1,1,0,0,1-1,.937Z" fill="#670a39"/><path d="M259.952,169.71q-1.077,0-2.132-.093l-.209-.027c-.084-.011-.166-.022-.242-.035a24.22,24.22,0,0,1-4.793-.937c-.413-.124-.819-.26-1.226-.406a30.784,30.784,0,0,1-12.5-8.672c-5.953-6.638-10.236-16.191-12.063-26.9a76.465,76.465,0,0,1,.415-26.973,68.616,68.616,0,0,1,1.756-7.03c.078-.287.174-.6.271-.92l.145-.48c.179-.553.362-1.082.544-1.607l.159-.463a1,1,0,0,1,1.151-.653,18.912,18.912,0,0,0,8.136-.365c20.917-4.92,32.521-6.829,45.963-5.139a91.5,91.5,0,0,1,9.018,1.607,1,1,0,0,1,.714.623c.156.417.292.833.427,1.26a.6.6,0,0,1,.02.073,72.01,72.01,0,0,1,2.883,27.49c-2.069,24.692-15.906,45.322-32.9,49.054a26.916,26.916,0,0,1-5.537.593ZM231.694,96.625c-.138.4-.275.8-.4,1.2l-.142.471c-.091.3-.183.6-.265.9a67.21,67.21,0,0,0-1.713,6.857,71.408,71.408,0,0,0-1.125,8.128,72.226,72.226,0,0,0,.72,18.122c1.764,10.342,5.876,19.54,11.578,25.9a28.832,28.832,0,0,0,11.682,8.125c.375.135.749.259,1.131.375a22.78,22.78,0,0,0,4.486.871l.431.06a24.112,24.112,0,0,0,7-.472c16.152-3.547,29.332-23.426,31.329-47.266a69.967,69.967,0,0,0-2.815-26.781.752.752,0,0,1-.022-.078c-.064-.2-.127-.4-.194-.593-2.842-.633-5.559-1.109-8.287-1.452-13.139-1.653-24.581.239-45.256,5.1a21.851,21.851,0,0,1-8.133.533Z" fill="#670a39"/><path d="M204.058,92.391c-.07,23.8-10.7,43.48-24.8,47.93a20.42,20.42,0,0,1-6.42.94c-.52-.02-1.04-.05-1.54-.09a19.607,19.607,0,0,1-4.03-.82c-.21-.07-.42-.14-.63-.22a21.48,21.48,0,0,0,4.17-.87c14.92-4.71,26.18-25.54,26.25-50.75v-.79a12.283,12.283,0,0,0,6.96,1.62c.03,1.01.04,2.02.04,3.05Z" fill="#e7dcdc"/><path d="M173.193,142.265h-.373c-.554-.021-1.089-.052-1.6-.094a20.675,20.675,0,0,1-4.249-.862c-.24-.079-.464-.155-.688-.24a25.866,25.866,0,0,1-8.041-4.6c-7.634-6.3-13.443-17.343-15.934-30.3A77.825,77.825,0,0,1,140.93,91.2c0-.791.01-1.585.041-2.358a75.656,75.656,0,0,1,1.7-13.774.488.488,0,0,1,.015-.1A60.046,60.046,0,0,1,149.4,57.293a1,1,0,0,1,1.129-.456c15.368,4.248,25.315,11.885,42.858,27.109a21.818,21.818,0,0,0,4.138,2.888,11.294,11.294,0,0,0,6.4,1.512,1,1,0,0,1,1.1.966c.031,1.02.041,2.039.041,3.079-.07,23.683-10.794,44.24-25.5,48.88A21.364,21.364,0,0,1,173.193,142.265ZM144.65,75.315a.82.82,0,0,1-.016.1A73.922,73.922,0,0,0,142.967,88.9c-.03.756-.039,1.522-.039,2.289a75.873,75.873,0,0,0,1.341,14.589c2.406,12.512,7.962,23.133,15.245,29.139a23.921,23.921,0,0,0,7.448,4.266c.229.086.425.152.621.217a18.627,18.627,0,0,0,3.808.773c.473.038.979.068,1.485.087a19.782,19.782,0,0,0,6.088-.9c13.89-4.384,24.025-24.14,24.094-46.974,0-.675,0-1.34-.016-2a13.865,13.865,0,0,1-6.453-1.784,23.84,23.84,0,0,1-4.516-3.147c-17.023-14.772-26.779-22.3-41.338-26.483a58.494,58.494,0,0,0-6.085,16.343Z" fill="#670a39"/><path d="M229.608,279.181v158.66l-6.06-2.36-141.59-55.25V222.141Z" fill="#557fa0"/><path d="M229.608,279.181v158.66l-6.06-2.36c-.41-41.56-1.48-133.27-2.88-147.86-17.12-11.22-94.52-39.98-138.71-58.85v-6.63Z" fill="#4a607c"/><path d="M229.608,438.841a1,1,0,0,1-.363-.069l-6.06-2.359L81.594,381.163a1,1,0,0,1-.636-.932V222.141a1,1,0,0,1,1.36-.933l147.65,57.041a1,1,0,0,1,.64.932v158.66a1,1,0,0,1-1,1ZM82.958,379.548l145.65,56.83V279.867L82.958,223.6Z" fill="#670a39"/><path d="M203.384,343.9c0,17.026-1.485,32.567-3.947,44.415a7.369,7.369,0,0,1-8.318,5.672c-12.534-2.136-29.568-7.6-47.6-15.711a252.892,252.892,0,0,1-29.977-15.849c-4.527-2.834-8.781-9.482-9.44-14.783a257.417,257.417,0,0,1-1.818-31.344,233.765,233.765,0,0,1,3.487-42.1,7.358,7.358,0,0,1,8.366-5.9,235.6,235.6,0,0,1,40.021,11,237.013,237.013,0,0,1,37.192,16.983c4.8,2.79,9.336,9.536,10.054,15.038a255.1,255.1,0,0,1,1.98,32.579Z" fill="#670a39"/><path d="M192.3,395.091a8.1,8.1,0,0,1-1.356-.114c-13.055-2.226-30.492-7.979-47.838-15.785a255.251,255.251,0,0,1-30.1-15.913c-4.767-2.985-9.21-9.942-9.9-15.508a260.208,260.208,0,0,1-1.826-31.467,233.446,233.446,0,0,1,3.5-42.286,8.352,8.352,0,0,1,9.514-6.7,235.68,235.68,0,0,1,40.2,11.048,237.283,237.283,0,0,1,37.353,17.059c5.062,2.944,9.792,10.019,10.543,15.772a257.91,257.91,0,0,1,1.986,32.706c0,16.458-1.409,32.3-3.968,44.619a8.338,8.338,0,0,1-8.108,6.569ZM112.954,269.206a6.368,6.368,0,0,0-6.2,5.183,234.782,234.782,0,0,0-3.47,41.915,258.364,258.364,0,0,0,1.81,31.22c.617,4.961,4.728,11.4,8.979,14.059a253.018,253.018,0,0,0,29.856,15.785c17.2,7.739,34.459,13.439,47.355,15.637a6.381,6.381,0,0,0,7.172-4.889c2.532-12.185,3.926-27.887,3.926-44.212a255.88,255.88,0,0,0-1.969-32.447c-.67-5.126-5.05-11.676-9.566-14.3a235.2,235.2,0,0,0-37.03-16.908,233.605,233.605,0,0,0-39.847-10.956,6.072,6.072,0,0,0-1.016-.087Z" fill="#670a39"/><path d="M203.389,343.909c0,16.778-1.45,32.121-3.851,43.892-12.342-2.329-28.607-7.657-45.766-15.373a252.07,252.07,0,0,1-29.983-15.855c-4.524-2.826-8.784-9.487-9.443-14.787a258.716,258.716,0,0,1-1.815-31.331,234.049,234.049,0,0,1,3.44-41.828A239.807,239.807,0,0,1,154.153,279.3a238.218,238.218,0,0,1,37.2,16.983c4.788,2.8,9.341,9.546,10.058,15.051a255.276,255.276,0,0,1,1.978,32.575Z" fill="#bcbc6d"/><path d="M202.51,365.942c-.088,1.1-.19,2.2-.292,3.265-.015.2-.03.41-.059.615-.044.5-.088,1-.147,1.493-.131,1.231-.278,2.445-.424,3.631-2.709-7.408-5.7-12.2-8.96-15.592-15.68-16.66-33.585-.19-49.06-7.467-11.493-5.4-20.482-16.543-30.437-23.058-.264-3.88-.44-7.906-.527-12.049,10.175,6.456,19.266,17.9,30.964,23.4,18.066,8.487,44.712-17.632,58.942,25.762Z" fill="#fffdae"/><path d="M203.374,340.849c-15.812-17.525-33.922-.645-49.558-7.994-15.46-7.262-26.382-24.918-41.242-27.743.03-1.245.059-2.489.1-3.719s.088-2.46.146-3.675q.15-3.623.41-7.115c14.523,3.22,25.357,20.453,40.583,27.612,15.461,7.261,33.322-9.136,48.987,7.378.176,2.709.322,5.476.41,8.316.044.938.059,1.889.088,2.841.032,1.361.061,2.722.076,4.1Z" fill="#fffdae"/><path d="M199.539,388.8a1,1,0,0,1-.186-.018c-12.939-2.44-29.272-7.925-45.991-15.443a254.358,254.358,0,0,1-30.1-15.92c-4.768-2.979-9.212-9.937-9.9-15.511a261.508,261.508,0,0,1-1.824-31.453A233.874,233.874,0,0,1,115,268.442a1,1,0,0,1,1.161-.8A240.522,240.522,0,0,1,154.5,278.36a238.413,238.413,0,0,1,37.361,17.058c5.069,2.962,9.8,10.043,10.548,15.787a258.185,258.185,0,0,1,1.985,32.7c0,16.2-1.375,31.854-3.871,44.091a1,1,0,0,1-.984.8ZM116.773,269.792a234.332,234.332,0,0,0-3.243,40.664,259.278,259.278,0,0,0,1.809,31.207c.617,4.966,4.729,11.406,8.98,14.062a252.447,252.447,0,0,0,29.863,15.791c16.162,7.268,31.939,12.615,44.571,15.114,2.347-11.963,3.636-27.082,3.636-42.721a256.171,256.171,0,0,0-1.968-32.446c-.667-5.119-5.05-11.675-9.571-14.317a236.436,236.436,0,0,0-37.039-16.906,240.586,240.586,0,0,0-37.038-10.448Z" fill="#670a39"/><path d="M192.3,395.091a8.1,8.1,0,0,1-1.356-.114c-13.055-2.226-30.492-7.979-47.838-15.785a255.251,255.251,0,0,1-30.1-15.913c-4.767-2.985-9.21-9.942-9.9-15.508a260.208,260.208,0,0,1-1.826-31.467,233.446,233.446,0,0,1,3.5-42.286,8.352,8.352,0,0,1,9.514-6.7,235.68,235.68,0,0,1,40.2,11.048,237.283,237.283,0,0,1,37.353,17.059c5.062,2.944,9.792,10.019,10.543,15.772a257.91,257.91,0,0,1,1.986,32.706c0,16.458-1.409,32.3-3.968,44.619a8.338,8.338,0,0,1-8.108,6.569ZM112.954,269.206a6.368,6.368,0,0,0-6.2,5.183,234.782,234.782,0,0,0-3.47,41.915,258.364,258.364,0,0,0,1.81,31.22c.617,4.961,4.728,11.4,8.979,14.059a253.018,253.018,0,0,0,29.856,15.785c17.2,7.739,34.459,13.439,47.355,15.637a6.381,6.381,0,0,0,7.172-4.889c2.532-12.185,3.926-27.887,3.926-44.212a255.88,255.88,0,0,0-1.969-32.447c-.67-5.126-5.05-11.676-9.566-14.3a235.2,235.2,0,0,0-37.03-16.908,233.605,233.605,0,0,0-39.847-10.956,6.072,6.072,0,0,0-1.016-.087Z" fill="#670a39"/><path d="M201.369,389.137a.983.983,0,0,1-.169-.014l-.146-.025c-.567-.1-1.147-.2-1.725-.32a1,1,0,1,1,.419-1.955c.551.118,1.1.212,1.643.3l.146.025a1,1,0,0,1-.168,1.986Z" fill="#670a39"/><path d="M81.961,222.144V380.232L34.512,394.184C43.852,319.488,60.367,263.328,81.961,222.144Z" fill="#4a607c"/><path d="M34.512,395.184a1,1,0,0,1-.992-1.124c8.9-71.175,24.9-129.172,47.555-172.38a1,1,0,0,1,1.886.464V380.232a1,1,0,0,1-.718.959L34.794,395.143a1.014,1.014,0,0,1-.282.041ZM80.961,226.27C59.572,268.549,44.349,324.541,35.7,392.793l45.266-13.31Z" fill="#670a39"/><path d="M229.608,437.841l-10.24,3.05-37.43,11.17L34.7,394.171,69.168,384l12.79-3.77Z" fill="#557fa0"/><path d="M229.608,437.841l-10.24,3.05c-13.86-6.8-29.91-13.07-42.25-13.22-11.48-10.29-30.29-16.83-49.81-17.42-17.88-13.8-35.28-18.48-55.97-22.15l-2.17-4.1,12.79-3.77Z" fill="#4a607c"/><path d="M181.938,453.061a1,1,0,0,1-.366-.069L34.332,395.1a1,1,0,0,1,.083-1.89l47.26-13.94a1,1,0,0,1,.646.027l147.65,57.61a1,1,0,0,1-.077,1.89l-47.67,14.22a1,1,0,0,1-.286.044ZM37.774,394.306,181.983,451l44.548-13.29L81.913,381.287Z" fill="#670a39"/><path d="M483.718,516.5a16.463,16.463,0,0,1-6.52,12.2c-62.9,42.3-141.6,72.32-205.96,86.91-23.03,5.22-44.22,8.47-62.2,9.6.03-252.9,50.61-375.04,121.24-422.11V73.981l86.76-26.21c3.53.68,5.48,2.27,6.51,4.01a7.508,7.508,0,0,1,.65,1.46c4.05,12.66,16.37,51.52,21.76,72.12a7.591,7.591,0,0,1-1.84,6.86c.01,0,.01,0,0,.01a6.994,6.994,0,0,1-2.04,1.54c-22.82,11.05-48.5,19.56-57.6,22.64a4.582,4.582,0,0,0-2.95,4.45q1.71,24.2,3.11,47.99c3.9-1.62,37.33-12.35,68.1-29.08,1.17-.63,2.35-1.27,3.51-1.93a1.414,1.414,0,0,1,2.2,1q6.075,29.445,10.3,58.06a7.95,7.95,0,0,1-3.25,7.2q-1.845,1.185-3.74,2.36c-22.74,14.1-49.31,26.78-73.36,36.95q1.215,29.055,2.07,57.69a497.028,497.028,0,0,0,76.61-39.61c2.44-1.57,4.75-3.11,6.89-4.59a1.337,1.337,0,0,1,2.27,1.07c2.51,26.1,4.19,51.85,5.3,77.36a8.2,8.2,0,0,1-3.02,6.24q-3.045,2.25-6.29,4.46c-22.48,15.41-51.09,29.51-74.78,39.89-1.66.74-3.32,1.45-5.01,2.17q.48,29.97.72,59.72c27.72-11.08,60.04-28.6,80.76-42.97,2.3-1.58,4.45-3.14,6.44-4.64.23-.18.45-.35.68-.52,1.25-.95,2.28-.44,2.3,1.14C483.688,466.091,483.718,491.271,483.718,516.5Z" fill="#557fa0"/><path d="M483.718,516.5a16.463,16.463,0,0,1-6.52,12.2c-62.9,42.3-141.6,72.32-205.96,86.91-23.03,5.22-44.22,8.47-62.2,9.6.03-252.9,50.61-375.04,121.24-422.11V73.981l86.76-26.21c3.53.68,5.48,2.27,6.51,4.01a7.508,7.508,0,0,1,.65,1.46c4.05,12.66,16.37,51.52,21.76,72.12a7.591,7.591,0,0,1-1.84,6.86c.01,0,.01,0,0,.01a6.994,6.994,0,0,1-2.04,1.54c-22.82,11.05-48.5,19.56-57.6,22.64a4.582,4.582,0,0,0-2.95,4.45q1.71,24.2,3.11,47.99c3.9-1.62,37.33-12.35,68.1-29.08,1.17-.63,2.35-1.27,3.51-1.93a1.414,1.414,0,0,1,2.2,1q6.075,29.445,10.3,58.06a7.95,7.95,0,0,1-3.25,7.2q-1.845,1.185-3.74,2.36c-22.74,14.1-49.31,26.78-73.36,36.95q1.215,29.055,2.07,57.69a497.028,497.028,0,0,0,76.61-39.61c2.44-1.57,4.75-3.11,6.89-4.59a1.337,1.337,0,0,1,2.27,1.07c2.51,26.1,4.19,51.85,5.3,77.36a8.2,8.2,0,0,1-3.02,6.24q-3.045,2.25-6.29,4.46c-22.48,15.41-51.09,29.51-74.78,39.89-1.66.74-3.32,1.45-5.01,2.17q.48,29.97.72,59.72c27.72-11.08,60.04-28.6,80.76-42.97,2.3-1.58,4.45-3.14,6.44-4.64.23-.18.45-.35.68-.52,1.25-.95,2.28-.44,2.3,1.14C483.688,466.091,483.718,491.271,483.718,516.5Z" fill="#557fa0"/><path d="M91.12,444.186l63.314,24.893a1.153,1.153,0,0,0,1.689-1.15v-5.155a2.672,2.672,0,0,0-1.568-2.3L91.241,435.581a1.153,1.153,0,0,0-1.689,1.15v5.154a2.672,2.672,0,0,0,1.568,2.3Z" fill="#670a39"/><path d="M155.011,470.2a2.583,2.583,0,0,1-.943-.185l-63.314-24.9a3.692,3.692,0,0,1-2.2-3.231v-5.155a2.146,2.146,0,0,1,3.055-2.081l63.314,24.893a3.693,3.693,0,0,1,2.2,3.231v5.155a2.254,2.254,0,0,1-.933,1.912,2.069,2.069,0,0,1-1.179.359ZM91.486,443.256,154.8,468.148a.389.389,0,0,0,.264.04.4.4,0,0,0,.059-.259v-5.155a1.688,1.688,0,0,0-.934-1.37L90.875,436.512c-.165-.065-.252-.049-.264-.04a.394.394,0,0,0-.059.259v5.155a1.688,1.688,0,0,0,.934,1.37Z" fill="#670a39"/><path d="M145.975,407.818l-34.566-5.95-.764,9.01c-1.016,5.959,6.241,12.181,16.208,13.9,7.908,1.361,19.319-.669,19.935-8.263h.023C146.873,416.691,146.791,415.188,145.975,407.818Z" fill="#670a39"/><path d="M131.674,426.173a29.677,29.677,0,0,1-4.991-.413c-10.493-1.806-18.13-8.558-17.024-15.05l.753-8.926a1,1,0,0,1,1.166-.9l34.567,5.95a1,1,0,0,1,.824.875c.61,5.511.869,7.848.79,8.882h.025a8.325,8.325,0,0,1-3.421,6.065c-3.238,2.514-8.124,3.517-12.689,3.517Zm-19.361-23.134-.671,7.923c-.932,5.491,5.972,11.208,15.38,12.828,4.977.855,12.139.372,16.116-2.712a6.409,6.409,0,0,0,2.653-4.647.966.966,0,0,1,.029-.169c-.028-.492-.16-2.153-.756-7.586Z" fill="#670a39"/><path d="M146.048,406.941a5.234,5.234,0,0,1-.08.88c-.97,5.7-9.54,9-19.14,7.36-8.913-1.534-15.544-6.785-15.654-12.091v-.059c0-.1-.017-.207-.013-.31a4.89,4.89,0,0,1,.08-.85c.97-5.71,9.54-9,19.13-7.36C139.478,396.071,146.228,401.511,146.048,406.941Z" fill="#ec4949"/><path d="M146.048,406.941a5.234,5.234,0,0,1-.08.88c-.97,5.7-9.54,9-19.14,7.36-8.913-1.534-15.544-6.785-15.654-12.091.113.885,1.216,2.056,3.024,3.151,3.13,1.91,7.91,3.37,13.11,4.01a47.194,47.194,0,0,0,5.65.35c7.96,0,12.7-2.11,13.06-3.63Q146.033,406.941,146.048,406.941Z" fill="#ff6d6d"/><path d="M131.717,416.6a30.106,30.106,0,0,1-5.058-.437c-9.27-1.6-16.352-7.2-16.485-13.042v-.067c-.012-.182-.017-.279-.014-.375a5.725,5.725,0,0,1,.1-.989,8.553,8.553,0,0,1,3.73-5.5c3.918-2.777,10.107-3.776,16.552-2.674,9.6,1.644,16.7,7.417,16.512,13.433a6.16,6.16,0,0,1-.1,1.032c-.53,3.118-3,5.674-6.96,7.2a23.224,23.224,0,0,1-8.282,1.419Zm-6.205-21.51c-4.113,0-7.861.957-10.372,2.737a6.611,6.611,0,0,0-2.916,4.208,3.89,3.89,0,0,0-.066.682v.108c0,.063.008.125.009.188.1,4.878,6.614,9.765,14.827,11.179a23.754,23.754,0,0,0,12.277-.876c3.273-1.259,5.3-3.272,5.707-5.667a4.182,4.182,0,0,0,.066-.712V406.9c.164-4.945-6.358-9.957-14.849-11.411a27.861,27.861,0,0,0-4.683-.4Z" fill="#670a39"/><path d="M441.471,134.064c-5.85-28.65-10.023-57.533-17.923-82.283a7.508,7.508,0,0,1,.65,1.46c4.05,12.66,16.37,51.52,21.76,72.12C446.578,127.721,445.633,131.776,441.471,134.064Z" fill="#94b8c2"/><path d="M461.758,246.461c-2.55-22.71-5.55-45.02-9.02-66.69,1.17-.63,2.35-1.27,3.51-1.93a1.414,1.414,0,0,1,2.2,1q6.075,29.445,10.3,58.06a7.95,7.95,0,0,1-3.25,7.2q-1.845,1.185-3.74,2.36Z" fill="#94b8c2"/><path d="M467.078,301.491c2.44-1.57,4.75-3.11,6.89-4.59a1.337,1.337,0,0,1,2.27,1.07c2.51,26.1,4.19,51.85,5.3,77.36a8.2,8.2,0,0,1-3.02,6.24q-3.045,2.25-6.29,4.46c-1.17-28.17-2.86-56.5-5.15-84.54Z" fill="#94b8c2"/><path d="M483.718,516.5a16.463,16.463,0,0,1-6.52,12.2c-62.9,42.3-141.6,72.32-205.96,86.91,86.72-27.24,174.83-73.55,202.82-98.35.3-23.57.27-47.81-.14-72.42,2.3-1.58,4.45-3.14,6.44-4.64.23-.18.45-.35.68-.52,1.25-.95,2.28-.44,2.3,1.14.35,25.271.38,50.451.38,75.68Z" fill="#94b8c2"/><path d="M191.263,424.573l-34.737-5.95-.767,9.008c-1.021,5.96,6.271,12.182,16.287,13.9,7.948,1.361,19.415-.668,20.033-8.263h.024c.123-.175-.823-8.542-.84-8.7Z" fill="#670a39"/><path d="M176.894,442.927a29.993,29.993,0,0,1-5.016-.413,26.833,26.833,0,0,1-12.763-5.582c-3.356-2.863-4.9-6.226-4.342-9.47l.757-8.924a1,1,0,0,1,.384-.706,1.013,1.013,0,0,1,.781-.2l34.737,5.95a1,1,0,0,1,.825.875l-.994.111,1-.065c.8,7.11.919,8.564.792,9.066a8.33,8.33,0,0,1-3.393,5.821c-3.253,2.524-8.172,3.532-12.768,3.532ZM157.43,419.792l-.674,7.924c-.443,2.605.859,5.307,3.657,7.694a24.805,24.805,0,0,0,11.8,5.132c5.012.859,12.226.371,16.219-2.727a6.394,6.394,0,0,0,2.648-4.631.947.947,0,0,1,.028-.169c-.033-.767-.329-3.734-.758-7.583Z" fill="#670a39"/><path d="M191.348,423.681a5.355,5.355,0,0,1-.08.89c-.98,5.71-9.55,9-19.14,7.36-8.912-1.521-15.552-6.77-15.665-12.083v-.056c0-.117-.018-.234-.013-.351a5.691,5.691,0,0,1,.08-.82c.98-5.71,9.54-9,19.14-7.36C184.758,412.821,191.508,418.261,191.348,423.681Z" fill="#ec4949"/><path d="M191.348,423.681a5.355,5.355,0,0,1-.08.89c-.98,5.71-9.55,9-19.14,7.36-8.912-1.521-15.552-6.77-15.665-12.083.112.883,1.216,2.048,3.025,3.153,3.14,1.91,7.91,3.37,13.11,4a47.355,47.355,0,0,0,5.66.35c7.95,0,12.69-2.1,13.06-3.62a.055.055,0,0,1,.03-.05Z" fill="#ff6d6d"/><path d="M177.1,433.363a30.552,30.552,0,0,1-5.142-.446c-9.273-1.583-16.361-7.185-16.5-13.035v-.057l-.006-.114a2.956,2.956,0,0,1-.007-.312,6.622,6.622,0,0,1,.1-.961c1.086-6.329,10-9.92,20.291-8.163,9.584,1.644,16.678,7.412,16.512,13.421a6.381,6.381,0,0,1-.094,1.04c-.9,5.264-7.176,8.627-15.154,8.627Zm-6.363-21.528c-6.951,0-12.5,2.734-13.225,6.955a4.743,4.743,0,0,0-.066.687v.107c0,.065.008.13.009.2.1,4.88,6.62,9.764,14.835,11.166,9.032,1.544,17.1-1.391,17.986-6.543a4.251,4.251,0,0,0,.066-.721v-.029c.146-4.942-6.377-9.951-14.849-11.4a28.309,28.309,0,0,0-4.755-.417Z" fill="#670a39"/><path d="M102.888,389.675l-34.737-5.95-.767,9.01c-1.021,5.959,6.271,12.18,16.288,13.9,7.947,1.361,19.414-.669,20.032-8.263h.024c.123-.172-.813-8.459-.84-8.7Z" fill="#670a39"/><path d="M88.52,408.029a30.1,30.1,0,0,1-5.017-.412c-10.722-1.837-18.235-8.448-17.105-15.051l.757-8.926a1,1,0,0,1,.384-.706,1.017,1.017,0,0,1,.781-.2l34.737,5.95a1,1,0,0,1,.825.874l-.994.112.994-.11c.8,7.1.922,8.593.8,9.106a8.331,8.331,0,0,1-3.394,5.827c-3.255,2.529-8.172,3.536-12.768,3.536ZM69.055,384.9l-.674,7.925c-.937,5.49,6,11.2,15.46,12.825,5.011.861,12.226.373,16.219-2.727a6.394,6.394,0,0,0,2.648-4.631.876.876,0,0,1,.029-.17c-.036-.847-.385-4.237-.759-7.583Z" fill="#670a39"/><path d="M102.968,388.761a5.6,5.6,0,0,1-.08.91c-.98,5.71-9.55,9.01-19.14,7.36-8.99-1.54-15.69-6.87-15.69-12.24v-.05a.969.969,0,0,1,.01-.17,4.983,4.983,0,0,1,.08-.85c.98-5.7,9.55-9,19.14-7.35C96.368,377.921,103.118,383.351,102.968,388.761Z" fill="#ec4949"/><path d="M68.057,385.762a1.016,1.016,0,0,1-1-.979v-.042a1.939,1.939,0,0,1,.024-.339,1,1,0,1,1,1.977.359h-.006v.022a.981.981,0,0,1-1,.979Zm.057-1.183h.035l-.071-.013Z" fill="#670a39"/><path d="M102.968,388.761a5.6,5.6,0,0,1-.08.91c-.98,5.71-9.55,9.01-19.14,7.36-8.99-1.54-15.69-6.87-15.69-12.24.03.9,1.38,2.13,3.28,3.31,3.08,1.91,7.79,3.37,12.91,4a43.878,43.878,0,0,0,5.57.36c7.82,0,12.45-1.77,13.15-3.7Z" fill="#ff6d6d"/><path d="M88.652,398.458a30,30,0,0,1-5.074-.441c-9.418-1.614-16.52-7.3-16.52-13.226a2.637,2.637,0,0,1,.011-.289,5.926,5.926,0,0,1,.093-.95c.536-3.119,3.011-5.675,6.968-7.2a25.681,25.681,0,0,1,13.327-.97c9.572,1.633,16.667,7.388,16.511,13.389a6.541,6.541,0,0,1-.094,1.06c-.536,3.128-3.011,5.687-6.969,7.209a23.133,23.133,0,0,1-8.253,1.418Zm-6.279-21.515a21.136,21.136,0,0,0-7.525,1.28c-3.273,1.258-5.3,3.271-5.715,5.668a4.1,4.1,0,0,0-.065.68,1.049,1.049,0,0,1-.014.168c0,4.936,6.531,9.879,14.863,11.306a23.7,23.7,0,0,0,12.271-.867c3.273-1.26,5.3-3.275,5.715-5.676a4.608,4.608,0,0,0,.065-.741v-.028c.137-4.934-6.385-9.932-14.849-11.376a28.025,28.025,0,0,0-4.746-.414Z" fill="#670a39"/><path d="M330.278,203.1c-70.63,47.07-121.21,169.21-121.24,422.11-1.11-.25-2.24-.51-3.4-.78-1.07-.25-2.17-.52-3.28-.79q-5.925-1.47-12.47-3.34c-5.09-1.45-10.43-3.07-15.97-4.84-.62-251.1,48.14-374.65,116.99-424.06l29.25,8.69Z" fill="#94b8c2"/><path d="M261.136,244.166a1,1,0,0,1-.424-1.9c13.383-6.268,20.114-18.25,16.749-29.816a14.521,14.521,0,0,0-7.582-9.319c-6.353-3.2-14.486-2.16-19.979-.124a1,1,0,1,1-.7-1.875c5.887-2.183,14.647-3.273,21.573.212a16.447,16.447,0,0,1,8.6,10.548c3.594,12.352-3.734,25.588-17.821,32.185a1,1,0,0,1-.421.094Z" fill="#670a39"/><path d="M483.328,440.432v.015a5.315,5.315,0,0,1-1.845,2.533c-18.535,15.007-68.956,39.763-88.326,44.829,30.789-12.313,67.258-32.56,87.2-47.61-.015-1.186-.03-2.358-.059-3.544a3.258,3.258,0,0,1,2.781,1.45,4.209,4.209,0,0,1,.235.454v.029A2.836,2.836,0,0,1,483.328,440.432Z" fill="#670a39"/><path d="M393.157,488.809a1,1,0,0,1-.371-1.929c29.459-11.78,65.753-31.568,86.563-47.175-.012-1.01-.027-2.012-.051-3.025a1.007,1.007,0,0,1,1.038-1.024,4.274,4.274,0,0,1,3.606,1.937,5.307,5.307,0,0,1,.286.552.993.993,0,0,1,.07.214,3.812,3.812,0,0,1,.014,2.286.808.808,0,0,1-.022.088,6.34,6.34,0,0,1-2.172,3.024c-18.459,14.945-69.4,39.971-88.7,45.019a1,1,0,0,1-.261.033Zm88.166-50.932c.014.769.023,1.536.033,2.31a1,1,0,0,1-.4.81c-11.57,8.732-28.028,18.8-45.478,28.06,17.876-8.88,35.921-19.2,45.373-26.854a4.445,4.445,0,0,0,1.5-1.983.8.8,0,0,1,.022-.085,1.857,1.857,0,0,0,0-1.193c-.01-.026-.019-.052-.027-.079-.04-.084-.082-.163-.13-.243a1.873,1.873,0,0,0-.893-.743Z" fill="#670a39"/><path d="M476.168,297.162v.117a4.439,4.439,0,0,1-2.108,3.543c-21.77,14.611-59.074,32.443-83.6,40.275,27.685-11.082,61.182-29,82.513-43.511-.147-1.479-.293-2.957-.454-4.45a3.851,3.851,0,0,1,3.323,2.46,2.653,2.653,0,0,1,.22.658v.015a3.636,3.636,0,0,1,.106.893Z" fill="#670a39"/><path d="M390.464,342.1a1,1,0,0,1-.372-1.928c26.278-10.52,59.825-28.185,81.831-43.076-.127-1.279-.255-2.559-.394-3.85a1,1,0,0,1,1.067-1.1,4.854,4.854,0,0,1,4.18,3.089,3.433,3.433,0,0,1,.273.844v.031a4.652,4.652,0,0,1,.114,1.059v.117a5.432,5.432,0,0,1-2.549,4.372c-21.347,14.327-58.962,32.45-83.851,40.4a1.008,1.008,0,0,1-.3.042Zm83.209-47.6q.153,1.5.3,2.984a1,1,0,0,1-.433.925A444.555,444.555,0,0,1,428.61,324.6c16.659-7.806,33.223-16.78,44.893-24.613a3.471,3.471,0,0,0,1.666-2.746v-.083a2.59,2.59,0,0,0-.073-.65c-.009-.04-.017-.081-.022-.122a1.7,1.7,0,0,0-.132-.37,2.992,2.992,0,0,0-1.269-1.516Z" fill="#670a39"/><path d="M456.17,180.859C435.7,192.5,407.593,202.8,384.636,208.851c3.1-1.289,39.954-13.367,70.231-30.233q-.22-1.03-.44-2.063a4.151,4.151,0,0,1,3.207.5,1.548,1.548,0,0,1,.6.776c.014.088.044.191.058.279C458.4,178.926,457.765,179.951,456.17,180.859Z" fill="#670a39"/><path d="M384.636,209.852a1,1,0,0,1-.383-1.924c.483-.2,1.686-.629,3.506-1.278,10.03-3.574,40.381-14.391,65.976-28.547l-.286-1.341a1,1,0,0,1,.8-1.192,5.087,5.087,0,0,1,3.986.687,2.5,2.5,0,0,1,.944,1.257,1.051,1.051,0,0,1,.037.149c.033.147.048.215.059.279.173,1.378-.782,2.743-2.615,3.786-22.183,12.615-51.621,22.782-71.773,28.09a.977.977,0,0,1-.251.034Zm71.006-32.394.2.953a1,1,0,0,1-.491,1.081,359.51,359.51,0,0,1-34.834,16.692,261.555,261.555,0,0,0,35.156-16.194c1.184-.674,1.672-1.385,1.625-1.76-.013-.049-.022-.089-.031-.125a.58.58,0,0,0-.209-.233,2.477,2.477,0,0,0-1.416-.414Z" fill="#670a39"/><path d="M458.292,178.106a.867.867,0,0,0-.058-.278" fill="#670a39"/><path d="M458.292,179.106a1,1,0,0,1-1-.933,1.023,1.023,0,0,1,.631-1.267.975.975,0,0,1,1.256.606,1.808,1.808,0,0,1,.11.594A1,1,0,0,1,458.292,179.106Z" fill="#670a39"/><path d="M157.32,107.154c2.049,7.119-.018,14.208-4.63,17.13a8.749,8.749,0,0,1-2.2,1l-.1.027a76.726,76.726,0,0,1-5.152-13.927c-.2-.75-.388-1.5-.557-2.246A74.291,74.291,0,0,1,142.758,95.5c3.793-.777,7.781,1.032,10.75,4.464a18.94,18.94,0,0,1,3.812,7.19Z" fill="#670a39"/><path d="M150.389,126.312a1,1,0,0,1-.9-.562,77.779,77.779,0,0,1-5.219-14.108c-.2-.76-.394-1.525-.567-2.28a75.323,75.323,0,0,1-1.945-13.82,1,1,0,0,1,.8-1.025c4.025-.827,8.4.966,11.707,4.79a19.971,19.971,0,0,1,4.017,7.572c2.122,7.374,0,15.049-5.056,18.25a9.75,9.75,0,0,1-2.46,1.117l-.114.031a.994.994,0,0,1-.263.035ZM143.8,96.352a73.581,73.581,0,0,0,1.849,12.558c.168.737.352,1.478.55,2.215a76.218,76.218,0,0,0,4.7,12.958,8.584,8.584,0,0,0,1.255-.648c4.31-2.731,6.078-9.465,4.2-16a17.966,17.966,0,0,0-3.606-6.811c-2.585-3-5.875-4.548-8.948-4.272Z" fill="#670a39"/><path d="M240.451,127.936c1.989,7.955-.558,15.726-5.79,18.769a11.248,11.248,0,0,1-1.8.837,75.377,75.377,0,0,1-5.593-26.025,67.457,67.457,0,0,1,.124-7.136,13.673,13.673,0,0,1,9.132,5.448A21.106,21.106,0,0,1,240.451,127.936Z" fill="#670a39"/><path d="M232.856,148.542a1,1,0,0,1-.923-.615,74.1,74.1,0,0,1-4.917-17.98,75.455,75.455,0,0,1-.753-8.4,68.915,68.915,0,0,1,.126-7.24,1,1,0,0,1,.351-.69,1.013,1.013,0,0,1,.737-.234c3.586.325,7.074,2.392,9.823,5.819a22.221,22.221,0,0,1,4.122,8.489c2.053,8.215-.579,16.574-6.259,19.876a12.087,12.087,0,0,1-1.976.917,1,1,0,0,1-.331.058Zm-4.54-33.015c-.1,1.907-.122,3.906-.054,5.957a73.2,73.2,0,0,0,.734,8.177,72.241,72.241,0,0,0,4.406,16.573c.247-.117.5-.25.767-.4,4.916-2.858,7.154-10.286,5.312-17.655a20.181,20.181,0,0,0-3.741-7.723,13.141,13.141,0,0,0-7.424-4.929Z" fill="#670a39"/><path d="M234.143,96.811c-6.773,0-10.229-3.567-11.154-7.211a8.226,8.226,0,0,1,5.691-10.118,1,1,0,0,1,.527,1.93,6.252,6.252,0,0,0-4.279,7.695c.932,3.672,5.272,7.194,14.441,5.04,29.628-6.965,41.511-8.471,68.94.384a1,1,0,0,1-.614,1.9c-26.941-8.7-38.651-7.21-67.868-.341a24.953,24.953,0,0,1-5.684.721Z" fill="#670a39"/><path d="M203.117,90.4c-3.183,0-6.993-1.421-11.046-4.94C166.132,62.942,156.8,58.937,135.94,55.966a1,1,0,0,1,.282-1.981c23.716,3.379,33.5,9.422,57.161,29.965,6.617,5.75,12.286,5.259,14.967,2.229a5.308,5.308,0,0,0-.475-7.69A1,1,0,1,1,209.214,77a7.322,7.322,0,0,1,.634,10.5A8.794,8.794,0,0,1,203.117,90.4Z" fill="#670a39"/><path d="M113.483,288.44a1.009,1.009,0,0,1-.172-.014,20.086,20.086,0,0,0-5.257-.2,1,1,0,1,1-.183-1.991,22.05,22.05,0,0,1,5.782.215,1,1,0,0,1-.17,1.985Z" fill="#670a39"/><path d="M113.13,329.829a.994.994,0,0,1-.548-.164,29.328,29.328,0,0,0-10.093-4.469,1,1,0,1,1,.406-1.958,31.255,31.255,0,0,1,10.784,4.755,1,1,0,0,1-.549,1.836Z" fill="#670a39"/><path d="M112.6,317.78a1,1,0,0,1-.537-.157,28.532,28.532,0,0,0-9.576-4.139,1,1,0,0,1,.4-1.959,30.462,30.462,0,0,1,10.248,4.412,1,1,0,0,1-.539,1.843Z" fill="#670a39"/><path d="M112.544,313.93a.991.991,0,0,1-.5-.136,26.728,26.728,0,0,0-8.088-3.237,1,1,0,1,1,.4-1.959,28.66,28.66,0,0,1,8.691,3.467,1,1,0,0,1-.5,1.865Z" fill="#670a39"/><path d="M330.278,73.981V203.1c-70.63,47.07-121.21,169.21-121.24,422.11q-3.21-.72-6.68-1.57c-7.12-255.51,47.194-370.431,117.8-423.55,2.613-34.683,3.23-63.262,1.419-90.75a37.451,37.451,0,0,0-25.769-33.083C237.724,57.24,128.5,27.746,122.218,39.577V29.641c0-3.11.96-6.25,7.66-7.59Z" fill="#bfd3ce"/><path d="M330.278,204.1a1.028,1.028,0,0,1-.285-.041L121.933,142.2a1,1,0,0,1-.715-.959V29.641c0-3.2.962-7.07,8.463-8.571a1,1,0,0,1,.448.013l200.4,51.93a1,1,0,0,1,.749.968V203.1a1,1,0,0,1-1,1Zm-207.06-63.6,167.975,49.947,38.085,11.318v-127L129.851,23.077c-6.116,1.286-6.633,4.06-6.633,6.564Z" fill="#670a39"/><path d="M175.011,549.463h-.037a1,1,0,0,1-.963-1.036c4.665-127.361,24.434-224.522,58.758-288.785a1,1,0,1,1,1.764.942C200.354,324.577,180.664,421.446,176.01,548.5a1,1,0,0,1-1,.963Z" fill="#670a39"/><path d="M205.638,624.431c-1.07-.153-10.942-3.249-15.3-4.007.009-.006.373.068,1.279.265,8.031,1.424,10.632-5.95,10.211-24.087l2.652,20.77Z" fill="#bfd3ce"/><path d="M209.04,626.208a.993.993,0,0,1-.216-.023c-27.438-6.055-71.61-21.221-118.163-40.568C45.749,566.951,11.143,549.611.35,540.366A1,1,0,0,1,0,539.6C.512,325.662,41.454,191.349,121.686,140.4a1,1,0,0,1,.822-.114l208.054,61.856a1,1,0,0,1,.27,1.79c-80.126,53.4-120.766,195.139-120.792,421.279a1,1,0,0,1-1,1ZM2,539.144c10.9,9.066,45.852,26.515,89.428,44.626,45.767,19.021,89.2,33.986,116.611,40.19.175-224.481,40.517-365.928,119.927-420.506L122.375,142.33C43.064,193.039,2.57,326.539,2,539.144Z" fill="#670a39"/><path d="M254.378,219.792c-13.017,1.818-55.374,9.145-105.134-9.212-22.545-8.039-43.964-22.208-62.015-39.168-6.791-6.381,2.944-15.748,9.309-9.7,3.471,3.3,6.09,6.1,11.337,10.4Z" fill="#94b8c2"/><path d="M107.087,173.074c-3.483-2.956-6.792-6.166-9.98-9.356L95.9,162.535a8.061,8.061,0,0,0-1.159-.925,5.555,5.555,0,0,0-2.7-.84,6.234,6.234,0,0,0-5.027,2.541,5.12,5.12,0,0,0-.617,5.417,7.641,7.641,0,0,0,1.892,2.353l2.491,2.288c3.359,3,6.772,5.954,10.32,8.736a187.1,187.1,0,0,0,22.3,15.245c3.9,2.248,7.881,4.362,11.957,6.267,4.066,1.928,8.2,3.69,12.436,5.22a191.621,191.621,0,0,0,52.562,11.506,185.841,185.841,0,0,0,26.9-.064c4.468-.361,8.924-.836,13.35-1.52,4.443-.646,8.8-1.511,13.284-2.433a3.507,3.507,0,1,1,1.413,6.87,3.45,3.45,0,0,1-.4.059h-.046c-4.48.369-9.092.8-13.661,1.08s-9.162.487-13.743.511a233.479,233.479,0,0,1-27.392-1.25c-4.543-.452-9.067-1.082-13.564-1.852s-8.979-1.627-13.412-2.7A200.729,200.729,0,0,1,147,210.94c-4.271-1.593-8.46-3.425-12.558-5.419-4.111-1.971-8.117-4.151-12.04-6.464a193.115,193.115,0,0,1-22.5-15.436c-3.579-2.811-7.022-5.79-10.41-8.826l-2.511-2.31a9.549,9.549,0,0,1-2.309-2.924,6.832,6.832,0,0,1-.652-3.831,7.683,7.683,0,0,1,1.443-3.569,8.194,8.194,0,0,1,6.63-3.4,7.6,7.6,0,0,1,3.728,1.108c.268.178.536.36.793.552.238.2.5.418.715.617l1.243,1.17c1.649,1.566,3.267,3.13,4.935,4.63s3.4,2.921,5.16,4.313a1.244,1.244,0,1,1-1.544,1.952Z" fill="#670a39"/><path d="M209.038,626.211a1,1,0,0,1-1-1c.027-226.436,40.816-368.627,121.24-422.644V73.981a1,1,0,0,1,.711-.957l86.76-26.21a.98.98,0,0,1,.478-.025c3.391.653,5.807,2.162,7.181,4.483a8.459,8.459,0,0,1,.741,1.659c3.727,11.651,16.306,51.27,21.776,72.177a8.607,8.607,0,0,1-1.993,7.7,1.064,1.064,0,0,1-.107.126,7.886,7.886,0,0,1-2.3,1.73c-21.841,10.576-46.041,18.746-56.374,22.235l-1.347.455a3.566,3.566,0,0,0-2.274,3.427c1.124,15.9,2.143,31.586,3.031,46.647q1.145-.418,3.026-1.084c10.426-3.708,38.119-13.559,63.678-27.455,1.167-.629,2.34-1.265,3.493-1.921a2.41,2.41,0,0,1,3.674,1.664c3.959,19.2,7.428,38.747,10.31,58.118a9,9,0,0,1-3.7,8.189c-1.234.792-2.488,1.585-3.753,2.368-19.846,12.306-44.356,24.669-72.859,36.751.741,17.77,1.413,36.454,2,55.575a493.71,493.71,0,0,0,75.112-38.986c2.406-1.548,4.714-3.087,6.863-4.572a2.486,2.486,0,0,1,2.485-.349,2.516,2.516,0,0,1,1.35,2.145c2.378,24.735,4.113,50.057,5.3,77.413a9.165,9.165,0,0,1-3.429,7.09c-2.045,1.512-4.172,3.02-6.318,4.48-23.869,16.362-53.928,30.772-74.941,39.979-1.457.649-2.918,1.278-4.4,1.91.306,19.145.54,38.508.7,57.588,26.224-10.625,57.868-27.52,79.2-42.316,2.115-1.453,4.27-3,6.408-4.617.222-.174.45-.349.688-.525a2.519,2.519,0,0,1,2.639-.476,2.554,2.554,0,0,1,1.255,2.408c.351,25.36.38,50.274.38,75.692a17.558,17.558,0,0,1-6.963,13.031c-56.59,38.055-133.71,70.6-206.3,87.054-23.1,5.237-44.084,8.475-62.359,9.623ZM331.278,74.724V203.1a1,1,0,0,1-.445.832c-80,53.314-120.639,194.7-120.8,420.211,17.695-1.188,38.75-4.47,60.979-9.508,72.358-16.4,149.226-48.839,205.623-86.764a15.561,15.561,0,0,0,6.078-11.371c0-25.41-.029-50.317-.38-75.667a1.065,1.065,0,0,0-.144-.643,1.379,1.379,0,0,0-.551.286c-.233.172-.446.337-.667.511-2.178,1.641-4.357,3.211-6.492,4.677-21.811,15.127-54.346,32.439-80.955,43.075a1,1,0,0,1-1.371-.921c-.16-19.772-.4-39.862-.72-59.712a1,1,0,0,1,.608-.936c1.685-.718,3.339-1.425,5-2.163,20.94-9.175,50.878-23.526,74.621-39.8,2.127-1.448,4.233-2.941,6.262-4.44a7.19,7.19,0,0,0,2.615-5.39c-1.189-27.323-2.921-52.61-5.3-77.31-.031-.328-.139-.494-.2-.522s-.246,0-.5.178c-2.168,1.5-4.5,3.049-6.919,4.609a494.376,494.376,0,0,1-76.779,39.7,1,1,0,0,1-1.372-.9c-.6-19.861-1.3-39.267-2.069-57.678a1,1,0,0,1,.609-.963c28.68-12.127,53.315-24.535,73.223-36.879q1.884-1.165,3.726-2.351a6.923,6.923,0,0,0,2.8-6.212c-2.876-19.334-6.338-38.85-10.291-58a.552.552,0,0,0-.253-.41.559.559,0,0,0-.478.08c-1.162.661-2.348,1.3-3.525,1.938-25.693,13.97-53.494,23.858-63.959,27.581-2.092.744-3.6,1.282-4.231,1.542a1,1,0,0,1-1.383-.864c-.906-15.469-1.952-31.611-3.109-47.979a5.545,5.545,0,0,1,3.632-5.469l1.344-.454c10.3-3.477,34.415-11.619,56.136-22.137a5.935,5.935,0,0,0,1.672-1.244.856.856,0,0,1,.067-.082,6.565,6.565,0,0,0,1.609-5.93c-5.457-20.86-18.023-60.436-21.745-72.069a6.359,6.359,0,0,0-.561-1.26c-1.036-1.751-2.919-2.924-5.6-3.485Z" fill="#670a39"/><path d="M417.628,50.721l-79.57,23.92a34.66,34.66,0,0,1-15.66.34l-194.59-49.57c-3.07-.78-3.07-2.06,0-2.84l7.02-1.78,76.58-19.41a17.574,17.574,0,0,1,6.93-.07L412.1,46.621l5.44,1.27c2.938.69,2.978,1.96.088,2.83Z" fill="#94b8c2"/><path d="M412.1,46.621c-80,25.559-104.1,19.9-277.27-25.83l76.58-19.41a17.574,17.574,0,0,1,6.93-.07Z" fill="#557fa0"/><path d="M329.372,76.714a30.607,30.607,0,0,1-7.22-.764L127.561,26.38c-.755-.192-3.055-.776-3.055-2.389s2.3-2.2,3.055-2.389l83.6-21.19a18.387,18.387,0,0,1,7.4-.076l199.2,46.581c1.961.46,2.971,1.231,3,2.291s-.927,1.891-2.853,2.471L338.346,75.6a33.013,33.013,0,0,1-8.974,1.114ZM126.77,23.991a6.041,6.041,0,0,0,1.284.451l194.591,49.57a33.917,33.917,0,0,0,15.124-.328l79.571-23.92a5.475,5.475,0,0,0,1.2-.487,5.45,5.45,0,0,0-1.229-.412L411.87,47.6,218.11,2.285a16.586,16.586,0,0,0-6.457.066l-83.6,21.189a6.026,6.026,0,0,0-1.283.451Z" fill="#670a39"/><path d="M444.178,132.721q5.97,23.235,10.69,45.9-1.935,1.08-3.92,2.14c-2.79-16.07-5.85-31.73-9.22-46.85.82-.39,1.64-.79,2.45-1.19Z" fill="#557fa0"/><path d="M472.978,297.591c-2.07,1.41-4.26,2.85-6.54,4.31-1.63-18.39-3.55-36.7-5.76-54.76q2.94-1.8,5.7-3.59Q470.368,270.866,472.978,297.591Z" fill="#557fa0"/><path d="M480.358,440.2c-1.99,1.5-4.14,3.05-6.43,4.64-.34-19.21-.95-38.84-1.85-58.67,2.34-1.6,4.57-3.19,6.67-4.75.82,19.7,1.31,39.28,1.61,58.78Z" fill="#557fa0"/><path d="M393.158,488.811a1,1,0,0,1-1-.992c-.16-19.773-.4-39.862-.72-59.712a1,1,0,0,1,.608-.936c1.685-.718,3.339-1.425,5-2.163,30.04-13.161,55.79-26.875,74.472-39.662,2.292-1.568,4.526-3.159,6.639-4.728a1,1,0,0,1,1.6.761c.753,18.092,1.28,37.328,1.611,58.807a1,1,0,0,1-.4.814c-1.97,1.484-4.144,3.053-6.462,4.662C452.7,460.787,420.159,478.1,393.537,488.74a1,1,0,0,1-.379.071Zm.29-60.064c.306,19.145.54,38.508.7,57.588,26.237-10.63,57.885-27.525,79.212-42.316,2.138-1.484,4.151-2.933,5.992-4.311-.319-20.516-.819-38.985-1.524-56.368-1.675,1.22-3.412,2.445-5.184,3.657-18.783,12.856-44.646,26.633-74.793,39.84-1.459.649-2.92,1.278-4.4,1.91Z" fill="#670a39"/><path d="M390.468,342.1a1,1,0,0,1-1-.97c-.6-19.861-1.3-39.267-2.069-57.678a1,1,0,0,1,.611-.964c2.937-1.233,5.837-2.493,8.717-3.745l.323-.14c24.082-10.563,45.9-21.737,63.1-32.315,1.861-1.14,3.772-2.343,5.68-3.578a1,1,0,0,1,1.533.7c2.558,17.507,4.78,35.7,6.606,54.086a1,1,0,0,1-.432.925c-1.993,1.358-4.2,2.813-6.564,4.326a497.229,497.229,0,0,1-76.137,39.286.985.985,0,0,1-.368.072Zm-1.042-58.038c.74,17.769,1.412,36.455,2,55.575A496.876,496.876,0,0,0,465.9,301.059c2.155-1.379,4.179-2.71,6.026-3.961-1.758-17.613-3.88-35.05-6.312-51.866-1.485.949-2.964,1.875-4.412,2.762-17.275,10.624-39.182,21.843-63.35,32.443l-.325.141c-2.681,1.164-5.375,2.336-8.1,3.485Z" fill="#670a39"/><path d="M384.638,209.851a1,1,0,0,1-1-.941c-.908-15.49-1.954-31.629-3.11-47.969a5.594,5.594,0,0,1,3.637-5.5l1.73-.582c9.883-3.324,33.028-11.109,55.4-21.852.818-.39,1.634-.788,2.44-1.185a1,1,0,0,1,1.412.647c3.892,15.15,7.492,30.607,10.7,45.944a1,1,0,0,1-.492,1.078c-1.294.722-2.609,1.435-3.933,2.148C426.417,195,397.8,205.2,388.39,208.549c-1.7.608-2.938,1.047-3.369,1.226a1,1,0,0,1-.383.076Zm58.876-75.69c-.451.219-.9.438-1.357.653-22.477,10.8-45.7,18.607-55.623,21.943l-1.726.581a3.613,3.613,0,0,0-2.283,3.458c1.123,15.877,2.142,31.559,3.031,46.643.573-.207,1.3-.465,2.163-.774,9.371-3.339,37.887-13.5,62.758-26.786,1.094-.589,2.184-1.179,3.261-1.775-3.079-14.668-6.516-29.442-10.224-43.943Z" fill="#670a39"/><path d="M143.048,465.411c-6.7,41.187-8.357,85.557-7.189,136.888l-33.744-13.068L96.351,446.243Z" fill="#670a39"/><path d="M135.859,603.3a1.009,1.009,0,0,1-.362-.067l-33.743-13.068a1,1,0,0,1-.638-.892L95.352,446.284a1,1,0,0,1,1.379-.966l46.7,19.168a1,1,0,0,1,.607,1.086c-6.24,38.377-8.453,80.539-7.176,136.7a1,1,0,0,1-1,1.023Zm-32.771-14.763,31.737,12.291c-1.2-55.171,1-96.839,7.109-134.792L97.413,447.76Z" fill="#670a39"/></g></svg>